<svg xmlns="http://www.w3.org/2000/svg" xml:space="preserve" width="1500" height="135" data-id="lg_srWz7ls9WE5UmtlJ8d" data-version="1"><g data-padding="20"><g transform="translate(10 2.398)scale(.96448)"><path fill="#37447e" d="M691.682 107.21h-54.07V26.35h53.29v8.31h-43.18v25.38h37.79v8.31h-37.79V98.9h43.96Zm35.91 1.35q-8.54 0-14.77-3.88-6.23-3.87-9.6-10.98-3.37-7.1-3.37-16.81 0-9.72 3.37-16.82t9.6-10.98q6.23-3.87 14.77-3.87 6.51 0 11.65 2.38 5.14 2.39 8.7 6.85 3.57 4.47 5.25 10.76l-9.6 2.52q-1.57-7.07-5.64-10.86t-10.36-3.79q-8.37 0-12.89 6.2-4.52 6.21-4.52 17.61 0 11.45 4.52 17.63 4.52 6.17 12.89 6.17 6.23 0 10.27-3.67 4.04-3.68 5.67-10.64l9.55 2.69q-1.35 4.61-3.71 8.2t-5.58 6.12q-3.23 2.53-7.3 3.85t-8.9 1.32m62.85 0q-8.53 0-15.05-4.02-6.51-4.01-10.16-11.14-3.65-7.14-3.65-16.51 0-9.38 3.65-16.51t10.16-11.15q6.52-4.01 15.05-4.01 8.54 0 15.05 4.01 6.51 4.02 10.16 11.15t3.65 16.51q0 9.37-3.65 16.51-3.65 7.13-10.16 11.14-6.51 4.02-15.05 4.02m0-7.87q8.59 0 13.56-6.4t4.97-17.4q0-11.07-4.97-17.44t-13.56-6.37-13.56 6.37-4.97 17.44q0 11 4.97 17.4t13.56 6.4m67.46 6.52h-12.52q-3.59 0-6.29-2.39-2.69-2.38-2.69-6.03V54.43h-9.78v-7.87h9.78V33.87l9.43-2.02v14.71h12.02v7.87h-12.02v41.83q0 1.85.53 2.47.54.62 2.28.62h9.26Zm36.69 1.35q-8.65 0-14.96-3.88-6.32-3.87-9.75-10.98-3.42-7.1-3.42-16.76 0-9.71 3.42-16.84 3.43-7.13 9.66-11.01 6.23-3.87 14.66-3.87 4.83 0 9.68 1.54 4.86 1.54 8.88 5.34 4.01 3.79 6.45 10.38 2.45 6.6 2.45 16.65h-49.14V71.5h40.94l-2.7 3.53q-.28-7.97-2.58-12.8t-5.98-6.99-8.17-2.16q-5.34 0-9.21 2.78t-5.95 8.11q-2.08 5.34-2.08 13.03 0 11.34 4.63 17.52 4.64 6.17 13.17 6.17 6.12 0 10.3-3.08 4.19-3.09 6.15-8.93l9.27 3.14q-2.19 5.28-5.84 9.02-3.65 3.73-8.68 5.72-5.02 2-11.2 2m64.04 0q-8.54 0-14.77-3.88-6.24-3.87-9.6-10.98-3.37-7.1-3.37-16.81 0-9.72 3.37-16.82 3.36-7.1 9.6-10.98 6.23-3.87 14.77-3.87 6.51 0 11.65 2.38 5.13 2.39 8.7 6.85 3.57 4.47 5.25 10.76l-9.6 2.52q-1.57-7.07-5.64-10.86-4.08-3.79-10.36-3.79-8.37 0-12.89 6.2-4.52 6.21-4.52 17.61 0 11.45 4.52 17.63 4.52 6.17 12.89 6.17 6.23 0 10.27-3.67 4.04-3.68 5.67-10.64l9.55 2.69q-1.35 4.61-3.71 8.2t-5.58 6.12q-3.23 2.53-7.3 3.85-4.08 1.32-8.9 1.32m47.18-1.35h-9.43V22.98h9.43v37.85l-.95-2.47q2.36-5.68 7.61-9.41t12.83-3.73q6.4 0 11.03 2.86 4.64 2.86 7.16 8.17 2.53 5.31 2.53 12.77v38.19h-9.43V69.75q0-7.69-2.9-12.18-2.89-4.49-10.24-4.49-7.87 0-12.75 5.58-4.89 5.59-4.89 16.82Z"/><rect width="420.06" height="129.95" x="158.432" y="-395.429" fill="none" rx="0" ry="0" transform="translate(470.47 400.34)"/><path fill="#37447e" d="M596.542 90.31c0-.14 0-.14.14-.28 2.24-5.88 3.64-12.32 3.78-19.04v-1.26a55.986 55.986 0 0 0-101.64-32.48 56 56 0 0 0-7.28 50.82c7.56 21.98 28.42 37.8 52.92 37.8 22.54 0 42-13.44 50.96-32.62 0-.14.14-.14.14-.28.28-.84.7-1.68.98-2.66m-5.18-19.18v-1.54h-1.54v1.54h-3.5v-1.54h-1.54v1.54h-3.5v-1.54h-1.54v1.54h-4.06v4.06h-25.62v-6.58h12.04v-5.18c.98-.28 1.82-.98 2.24-1.96h25.06c.42 1.68 1.82 3.08 3.5 3.36.14 1.68.28 3.22.28 4.9v1.26h-1.82Zm-46.9-50.12c22.26 0 41.02 14.98 46.9 35.28-.14.14-.28.14-.42.28l-9.66-9.38v-.42h-30.66v-9.1h-7.56v9.1h-3.5v-9.1h-7.56v9.1h-3.5v-9.1h-7.56v9.1h-7.14c-.28-1.4-1.68-2.52-3.22-2.52-1.82 0-3.22 1.54-3.22 3.36 0 1.54 1.12 2.8 2.52 3.22v4.62h27.86c.28 1.4 1.68 2.52 3.22 2.52 1.82 0 3.22-1.54 3.22-3.36s-1.4-3.36-3.22-3.36c-1.54 0-2.8 1.12-3.22 2.52h-26.46v-3.08c1.26-.28 2.1-1.26 2.38-2.38h43.96v3.36h18.62v-3.36h4.06l9.8 9.38c-.42.7-.7 1.4-.7 2.24h-24.78c-.14-1.68-1.54-3.08-3.22-3.08-1.82 0-3.22 1.54-3.22 3.36 0 1.54 1.12 2.8 2.52 3.22v3.64h-24.78c-.42-5.04-4.62-9.1-9.8-9.1s-9.38 4.06-9.8 9.1h-2.52v-3.5h-5.04v-2.52h-12.04v5.6h12.04v-1.54h3.5v6.02h-3.5v-1.54h-12.04v5.6h12.04v-2.52h5.04v-4.06h2.52c.42 5.04 4.62 9.1 9.8 9.1s9.38-4.06 9.8-9.1h12.6v8.12h27.16v6.02h-31.64a4.76 4.76 0 0 0-9.52 0h-18.76c-.28-1.4-1.68-2.52-3.22-2.52-1.82 0-3.22 1.54-3.22 3.36s1.4 3.36 3.22 3.36c1.54 0 2.8-1.12 3.22-2.52h18.9c.56 2.1 2.38 3.5 4.62 3.5s4.06-1.54 4.62-3.5h9.8v2.8h3.5v-2.8h18.62v6.02h-75.6c-2.94-6.3-4.48-13.16-4.48-20.58a48.58 48.58 0 0 1 48.72-48.86m0 97.72c-19.04 0-35.56-10.92-43.54-26.88h41.16v8.96h7.42v-8.96h3.08v8.96h7.56v-8.96h3.08v8.96h7.56v-8.96h5.04v4.06h4.06v1.54h1.54v-1.54h3.5v1.4a49.28 49.28 0 0 1-40.46 21.42"/></g><path fill="transparent" stroke="transparent" d="M468.5 0h563v135h-563z"/></g></svg>