<svg width="17" height="17" viewBox="0 0 17 17" fill="none" xmlns="http://www.w3.org/2000/svg">
<path fill-rule="evenodd" clip-rule="evenodd" d="M5.4888 0.469238H11.4721C14.2255 0.469238 16.4582 2.68734 16.4582 5.42257V11.3666C16.4582 14.1018 14.2255 16.3199 11.4721 16.3199H5.4888C2.73547 16.3199 0.502686 14.1018 0.502686 11.3666V5.42257C0.502686 2.68734 2.73547 0.469238 5.4888 0.469238ZM11.4721 14.8339C13.3968 14.8339 14.9624 13.2786 14.9624 11.3666V5.42257C14.9624 3.51058 13.3968 1.95524 11.4721 1.95524H5.4888C3.56416 1.95524 1.99852 3.51058 1.99852 5.42257V11.3666C1.99852 13.2786 3.56416 14.8339 5.4888 14.8339H11.4721ZM4.49157 8.39457C4.49157 6.20619 6.2776 4.4319 8.48046 4.4319C10.6833 4.4319 12.4694 6.20619 12.4694 8.39457C12.4694 10.583 10.6833 12.3572 8.48046 12.3572C6.2776 12.3572 4.49157 10.583 4.49157 8.39457ZM5.98741 8.39457C5.98741 9.75971 7.10629 10.8712 8.48046 10.8712C9.85464 10.8712 10.9735 9.75971 10.9735 8.39457C10.9735 7.02844 9.85464 5.9179 8.48046 5.9179C7.10629 5.9179 5.98741 7.02844 5.98741 8.39457ZM13.3001 4.13471C13.3001 4.42633 13.0621 4.66273 12.7686 4.66273C12.475 4.66273 12.237 4.42633 12.237 4.13471C12.237 3.84309 12.475 3.60668 12.7686 3.60668C13.0621 3.60668 13.3001 3.84309 13.3001 4.13471Z" fill="#00024B" fill-opacity="0.5"/>
</svg>
