<svg width="17" height="17" viewBox="0 0 17 17" fill="none" xmlns="http://www.w3.org/2000/svg">
<path fill-rule="evenodd" clip-rule="evenodd" d="M4.37651 2.2029C4.37651 3.16038 3.59518 3.93657 2.63137 3.93657C1.66756 3.93657 0.88623 3.16038 0.88623 2.2029C0.88623 1.24543 1.66756 0.469238 2.63137 0.469238C3.59518 0.469238 4.37651 1.24543 4.37651 2.2029ZM0.88623 5.42257H4.45429V16.3199H0.88623V5.42257ZM14.1494 5.54271C14.1448 5.54123 14.1403 5.53974 14.1358 5.53826C14.1109 5.53011 14.0861 5.52197 14.0595 5.5147C14.0117 5.5038 13.9638 5.49489 13.9149 5.48696C13.7255 5.44932 13.518 5.42257 13.2747 5.42257C11.1945 5.42257 9.87519 6.92541 9.4404 7.50594V5.42257H5.87234V16.3199H9.4404V10.3759C9.4404 10.3759 12.1369 6.64505 13.2747 9.38524V16.3199H16.8418V8.96618C16.8418 7.3197 15.706 5.94762 14.1732 5.55037C14.1652 5.54785 14.1573 5.54529 14.1494 5.54271Z" fill="#00024B" fill-opacity="0.5"/>
</svg>
