<svg width="17" height="17" viewBox="0 0 17 17" fill="none" xmlns="http://www.w3.org/2000/svg">
<path d="M16.7139 3.3148C16.1205 3.57336 15.4883 3.74475 14.8291 3.82796C15.5072 3.42575 16.0248 2.79371 16.2681 2.03188C15.6359 2.40636 14.9378 2.67086 14.1939 2.81847C13.5935 2.18346 12.7379 1.79016 11.8045 1.79016C9.99358 1.79016 8.53564 3.2504 8.53564 5.04054C8.53564 5.29811 8.55758 5.54578 8.61143 5.78156C5.892 5.6498 3.4857 4.355 1.86921 2.38258C1.58699 2.869 1.42145 3.42575 1.42145 4.0251C1.42145 5.1505 2.00483 6.1481 2.87441 6.72566C2.34887 6.71575 1.83331 6.56418 1.39652 6.32543C1.39652 6.33534 1.39652 6.34822 1.39652 6.3611C1.39652 7.94022 2.53036 9.25186 4.01722 9.55401C3.75096 9.62633 3.46077 9.661 3.15961 9.661C2.9502 9.661 2.73878 9.64912 2.54034 9.60553C2.96416 10.8924 4.16681 11.8385 5.59682 11.8692C4.48392 12.7341 3.07086 13.2551 1.54112 13.2551C1.27287 13.2551 1.01558 13.2433 0.758301 13.2106C2.20726 14.1388 3.92448 14.6688 5.77632 14.6688C11.7956 14.6688 15.0864 9.71549 15.0864 5.42194C15.0864 5.2783 15.0814 5.1396 15.0744 5.0019C15.7236 4.54421 16.2691 3.9726 16.7139 3.3148Z" fill="#00024B" fill-opacity="0.5"/>
</svg>
