<svg width="17" height="17" viewBox="0 0 17 17" fill="none" xmlns="http://www.w3.org/2000/svg">
<path fill-rule="evenodd" clip-rule="evenodd" d="M14.049 3.2021C15.0053 3.2556 15.475 3.39627 15.9078 4.16107C16.3586 4.92487 16.5859 6.24048 16.5859 8.55764V8.56062V8.56557C16.5859 10.8718 16.3586 12.1974 15.9088 12.9532C15.476 13.718 15.0063 13.8567 14.05 13.9211C13.0937 13.9756 10.6913 14.0083 8.61014 14.0083C6.52495 14.0083 4.12165 13.9756 3.16631 13.9201C2.21197 13.8557 1.74227 13.717 1.30549 12.9522C0.859732 12.1964 0.630371 10.8709 0.630371 8.56458V8.5626V8.55963V8.55665C0.630371 6.24048 0.859732 4.92487 1.30549 4.16107C1.74227 3.39528 2.21296 3.2556 3.1673 3.20111C4.12165 3.13771 6.52495 3.11096 8.61014 3.11096C10.6913 3.11096 13.0937 3.13771 14.049 3.2021ZM11.5998 8.55963L6.6137 5.58763V11.5316L11.5998 8.55963Z" fill="#00024B" fill-opacity="0.5"/>
</svg>
